<svg data-v-0dd9719b="" version="1.0" xmlns="http://www.w3.org/2000/svg" xmlns:xlink="http://www.w3.org/1999/xlink"
  viewBox="0 0 230 140" preserveAspectRatio="xMidYMid meet" color-interpolation-filters="sRGB" style="margin: auto;">
  <g data-v-0dd9719b="" fill="#feffff" class="bordersvg b-d1" transform="translate(10,5)">
    <path fill-opacity="0" stroke="#feffff" stroke-width="3"
      d="M 120.31999969482422 39.869998931884766 A 65.15999984741211 65.15999984741211 0 1 0 120.31999969482422 90.45000076293945">
    </path>
    <g transform="translate(10,39.869998931884766)">
      <g>
        <rect data-gra="graph-name-bg" stroke-width="2" class="i-icon-bg" x="0" y="0" width="220.63999938964844"
          height="50.58000183105469" fill-opacity="0"></rect> <!----> <!---->
      </g>
      <g transform="translate(10,3)">
        <g data-gra="path-name" fill-rule="" class="tp-name" opacity="0.9256804576765192"
          transform="matrix(1,0,0,1,-1.486390846469618,0)">
          <g transform="scale(1)">
            <g>
              <path
                d="M25.38-15.96C25.38-13.5 24.3-11.46 23.04-10.08 21.78-8.7 19.86-7.44 17.4-7.44 16.32-7.44 15.3-7.62 14.34-8.04 11.46-9.24 9.48-11.94 9.48-15.96 9.48-17.34 9.66-18.54 10.08-19.62 11.16-22.44 13.56-24.48 17.4-24.48 19.86-24.48 21.78-23.28 23.04-21.9 24.3-20.52 25.38-18.42 25.38-15.96ZM33.42-3.96L33.42-31.32 31.5-31.32 28.38-27.6C27.66-28.32 26.82-28.98 25.98-29.58 23.76-31.14 21-32.58 17.4-32.58 12.48-32.58 8.64-30.48 6.06-27.84 3.42-25.14 1.38-21.06 1.38-15.96 1.38-10.62 3.3-6.54 6.06-3.84 8.7-1.32 12.54 0.6 17.4 0.6 20.52 0.6 23.88 0 25.08-1.98 24.12 1.62 21.96 4.02 17.34 4.02L13.38 3.96 13.38 11.94 17.4 12C22.26 12 26.16 9.9 28.74 7.32 31.32 4.74 33.42 0.9 33.42-3.96ZM46.38-21.36C46.38-22.44 47.28-23.34 48.36-23.34L64.56-23.34 64.56-31.32 48.36-31.32C45.3-31.32 42.96-30.06 41.34-28.44 39.72-26.82 38.4-24.42 38.4-21.36 38.4-18.3 39.72-15.9 41.34-14.28 42.96-12.66 45.3-11.34 48.36-11.34L56.7-11.34C57.78-11.34 58.68-11.1 58.68-9.96 58.68-8.88 57.78-7.98 56.7-7.98L38.4-7.98 38.4 0 56.7 0C59.76 0 62.1-1.32 63.72-2.94 65.34-4.56 66.66-6.9 66.66-9.96 66.66-11.34 66.42-12.6 65.88-13.74 64.44-16.92 61.26-19.32 56.7-19.32L48.36-19.32C47.28-19.32 46.38-20.28 46.38-21.36ZM78.9 11.94L78.9-2.1C79.5-1.74 80.16-1.44 80.82-1.08 82.56-0.24 84.48 0.66 86.94 0.66 91.86 0.66 95.7-1.2 98.28-3.78 101.04-6.48 102.96-10.62 102.96-15.96 102.96-21.18 100.98-25.26 98.28-27.96 95.7-30.54 91.8-32.52 86.94-32.52 85.92-32.52 84.96-32.4 83.94-32.16 80.7-31.32 78.06-29.58 75.96-27.6L72.78-31.38 70.86-31.38 70.86 11.94ZM94.92-15.96C94.92-14.7 94.74-13.56 94.32-12.48 93.24-9.72 90.72-7.44 86.94-7.44 85.86-7.44 84.78-7.62 83.82-8.04 81-9.24 78.96-11.94 78.96-15.96 78.96-17.28 79.2-18.48 79.62-19.56 80.7-22.32 83.16-24.48 86.94-24.48 88.02-24.48 89.1-24.3 90.06-23.88 92.94-22.74 94.92-20.04 94.92-15.96ZM137.7 0L137.7-31.32 135.78-31.32 132.66-27.6C131.94-28.32 131.1-28.98 130.26-29.58 128.04-31.14 125.28-32.58 121.68-32.58 116.76-32.58 112.92-30.54 110.34-27.96 107.64-25.26 105.66-21.18 105.66-15.96 105.66-10.56 107.52-6.48 110.34-3.78 112.98-1.26 116.82 0.6 121.68 0.6 122.7 0.6 123.72 0.42 124.68 0.18 127.92-0.66 130.5-2.34 132.66-4.32L135.78 0ZM129.66-15.96C129.66-13.5 128.58-11.46 127.32-10.08 126.06-8.7 124.14-7.44 121.68-7.44 120.6-7.44 119.58-7.62 118.62-7.98 115.68-9.12 113.76-11.88 113.76-15.96 113.76-17.34 113.94-18.54 114.36-19.62 115.44-22.44 117.84-24.48 121.68-24.48 124.14-24.48 126.06-23.28 127.32-21.9 128.58-20.52 129.66-18.42 129.66-15.96ZM158.04-24.48C158.82-24.48 159.6-24.36 160.32-24.12 162.72-23.34 164.46-21.6 165.3-19.26L171.18-25.14C170.46-26.34 169.62-27.42 168.66-28.32 166.2-30.66 162.72-32.58 158.04-32.58 153.12-32.58 149.28-30.24 146.7-27.54 144.06-24.72 142.02-20.58 142.02-15.36 142.02-10.5 144.12-6.66 146.7-4.08 149.28-1.5 153.18 0.6 158.04 0.6 159.36 0.6 160.62 0.42 161.88 0.12 165.9-0.84 169.02-3.18 171.12-6.18L165.24-12.06C164.1-9.54 161.64-7.44 158.04-7.44 156.96-7.44 155.94-7.62 154.98-8.04 152.34-9.18 150.12-11.7 150.12-15.36 150.12-16.68 150.3-17.88 150.72-19.02 151.8-21.9 154.2-24.48 158.04-24.48ZM187.02-7.68L202.02-25.74C201.3-26.82 200.4-27.78 199.44-28.62 196.92-30.84 193.44-32.58 188.88-32.58 184.02-32.58 180.12-30.6 177.54-28.02 174.84-25.32 172.86-21.18 172.86-15.96 172.86-10.8 174.84-6.78 177.54-4.08 180.12-1.5 183.96 0.6 188.88 0.6 190.2 0.6 191.46 0.42 192.72 0.12 196.74-0.84 199.86-3.18 201.96-6.18L196.08-12.06C194.94-9.54 192.48-7.44 188.88-7.44 188.16-7.44 187.62-7.5 187.02-7.68ZM191.1-24.18L181.8-11.82C181.2-12.84 180.96-14.46 180.96-15.96 180.96-17.28 181.14-18.48 181.56-19.5 182.64-22.26 185.1-24.48 188.88-24.48 189.78-24.48 190.44-24.42 191.1-24.18Z"
                transform="translate(-1.3799999952316284, 32.58000183105469)"></path>
            </g> <!----> <!----> <!----> <!----> <!----> <!----> <!---->
          </g>
        </g> <!---->
      </g>
    </g>
  </g>
  <defs v-gra="od"></defs>
</svg>